<?xml version="1.0"?>
<svg xmlns="http://www.w3.org/2000/svg" xmlns:xlink="http://www.w3.org/1999/xlink" xmlns:svgjs="http://svgjs.com/svgjs" version="1.1" width="512" height="512" x="0" y="0" viewBox="0 0 512 512" style="enable-background:new 0 0 512 512" xml:space="preserve" class=""><g><g xmlns="http://www.w3.org/2000/svg"><path d="m346 456h-42a7.9992 7.9992 0 0 0 -6.6562 3.5625l-13.625 20.4375h-155.7188v-5.9268l38.9932-70.1879a8.0029 8.0029 0 0 0 1.0068-3.8853v-48h-16v45.9268l-38.9932 70.1879a8.0029 8.0029 0 0 0 -1.0068 3.8853v16a8 8 0 0 0 8 8h168a7.9992 7.9992 0 0 0 6.6562-3.5625l13.625-20.4375h37.7188a38.1192 38.1192 0 0 0 27.8652-12.1641l-11.73-10.88a21.7816 21.7816 0 0 1 -16.1352 7.0441z" fill="#fe3b00" data-original="#000000" style="" class=""/><path d="m448 412a12.0134 12.0134 0 0 1 -12 12h-184a12.0134 12.0134 0 0 1 -12-12v-116h16a48.054 48.054 0 0 0 48-48v-32a8 8 0 0 0 -8-8h-82.377a37.9538 37.9538 0 0 0 -36.0507 25.9834l-25.1623 75.4866a8.0117 8.0117 0 0 0 -.41 2.53v24h16v-22.7017l24.752-74.2548a21.9717 21.9717 0 0 1 20.871-15.0435h74.377v24a32.0364 32.0364 0 0 1 -32 32h-32v132a28.0314 28.0314 0 0 0 28 28h184a28.0314 28.0314 0 0 0 28-28v-332h-16z" fill="#fe3b00" data-original="#000000" style="" class=""/><path d="m436 16h-184a28.0314 28.0314 0 0 0 -28 28v148h16v-148a12.0134 12.0134 0 0 1 12-12h184a12.0134 12.0134 0 0 1 12 12v20h16v-20a28.0314 28.0314 0 0 0 -28-28z" fill="#fe3b00" data-original="#000000" style="" class=""/><path d="m400 120h16v16h16v-24a8 8 0 0 0 -8-8h-24z" fill="#fe3b00" data-original="#000000" style="" class=""/><path d="m432 288v-24h-16v16h-16v16h24a8 8 0 0 0 8-8z" fill="#fe3b00" data-original="#000000" style="" class=""/><path d="m256 112v24h16v-16h16v-16h-24a8 8 0 0 0 -8 8z" fill="#fe3b00" data-original="#000000" style="" class=""/><path d="m360 136a8 8 0 0 0 -8 8v40a8 8 0 0 0 8 8h40a8 8 0 0 0 8-8v-40a8 8 0 0 0 -8-8zm32 40h-24v-24h24z" fill="#fe3b00" data-original="#000000" style="" class=""/><path d="m280 144v40a8 8 0 0 0 8 8h40a8 8 0 0 0 8-8v-40a8 8 0 0 0 -8-8h-40a8 8 0 0 0 -8 8zm16 8h24v24h-24z" fill="#fe3b00" data-original="#000000" style="" class=""/><path d="m408 256v-40a8 8 0 0 0 -8-8h-40a8 8 0 0 0 -8 8v40a8 8 0 0 0 8 8h40a8 8 0 0 0 8-8zm-16-8h-24v-24h24z" fill="#fe3b00" data-original="#000000" style="" class=""/><path d="m336 256v-40a8 8 0 0 0 -8-8h-8v56h8a8 8 0 0 0 8-8z" fill="#fe3b00" data-original="#000000" style="" class=""/><path d="m304 48h80v16h-80z" fill="#fe3b00" data-original="#000000" style="" class=""/><path d="m272 48h16v16h-16z" fill="#fe3b00" data-original="#000000" style="" class=""/><path d="m400 48h16v16h-16z" fill="#fe3b00" data-original="#000000" style="" class=""/><path d="m288 352a56 56 0 1 0 56-56 56.0632 56.0632 0 0 0 -56 56zm56-40a40 40 0 1 1 -40 40 40.0455 40.0455 0 0 1 40-40z" fill="#fe3b00" data-original="#000000" style="" class=""/><path d="m330.3428 373.6567a8 8 0 0 0 11.3144 0l32-32-11.3144-11.3134-26.3428 26.3432-10.3428-10.3432-11.3144 11.3134z" fill="#fe3b00" data-original="#000000" style="" class=""/><path d="m127.9648 232a7.99 7.99 0 0 0 4.7041-1.5293l16.6163-12.08a130.9042 130.9042 0 0 0 52.331-82.5957c.0108-.062.0215-.124.0313-.1855l6.0556-38.3653a8 8 0 0 0 -4.6445-8.5537l-71.9-32.061a7.9977 7.9977 0 0 0 -6.5156 0l-71.9 32.061a8 8 0 0 0 -4.6445 8.5513l5.9931 38.05c.01.0625.02.1245.0313.1865a129.6819 129.6819 0 0 0 5.0166 19.1362l15.1211-5.23a113.6289 113.6289 0 0 1 -4.3789-16.6763l-5.0245-31.9009 63.0428-28.1115 63.042 28.1113-5.085 32.2139a114.9723 114.9723 0 0 1 -45.98 72.4287l-11.8809 8.6372-12.7275-9.3735a117.3569 117.3569 0 0 1 -34.6075-40.3814l-14.2187 7.336a133.4364 133.4364 0 0 0 39.3376 45.9282l17.44 12.8452a7.9868 7.9868 0 0 0 4.7448 1.5586z" fill="#fe3b00" data-original="#000000" style="" class=""/><path d="m119.81 167.9976a7.9763 7.9763 0 0 0 5.6572-2.3433l48-48-11.3145-11.3135-42.3427 42.3433-18.3428-18.3433-11.3149 11.3135 24 24a7.9763 7.9763 0 0 0 5.6577 2.3433z" fill="#fe3b00" data-original="#000000" style="" class=""/></g></g></svg>
