<?xml version="1.0"?>
<svg xmlns="http://www.w3.org/2000/svg" xmlns:xlink="http://www.w3.org/1999/xlink" xmlns:svgjs="http://svgjs.com/svgjs" version="1.1" width="512" height="512" x="0" y="0" viewBox="0 0 64 64" style="enable-background:new 0 0 512 512" xml:space="preserve" class=""><g><g xmlns="http://www.w3.org/2000/svg"><path d="m15 43h-2v2c-1.654 0-3 1.346-3 3s1.346 3 3 3h2c.551 0 1 .449 1 1s-.449 1-1 1h-3v-1h-2v3h3v2h2v-2c1.654 0 3-1.346 3-3s-1.346-3-3-3h-2c-.551 0-1-.449-1-1s.449-1 1-1h3v1h2v-3h-3z" fill="#fe3b00" data-original="#000000" style="" class=""/><path d="m54 15c2.757 0 5-2.243 5-5s-2.243-5-5-5-5 2.243-5 5 2.243 5 5 5zm0-8c1.654 0 3 1.346 3 3s-1.346 3-3 3-3-1.346-3-3 1.346-3 3-3z" fill="#fe3b00" data-original="#000000" style="" class=""/><path d="m63 10c0-4.962-4.038-9-9-9-3.113 0-5.861 1.59-7.478 4h-35.522v6.685c-.911-.435-1.925-.685-3-.685h-5v1c0 3.86 3.14 7 7 7h3v5 1 4.586l-1.693-1.693-5.637 1.409 3.151 8.402-3.486 3.05c-2.755 2.41-4.335 5.892-4.335 9.552 0 7 5.694 12.694 12.694 12.694h.612c7 0 12.694-5.694 12.694-12.694 0-1.854-.408-3.66-1.166-5.306h7.688c-1.623 1.948-2.522 4.395-2.522 7 0 6.065 4.935 11 11 11s11-4.935 11-11c0-2.605-.899-5.052-2.522-7h12.522zm-9-7c3.86 0 7 3.14 7 7s-3.14 7-7 7-7-3.14-7-7 3.14-7 7-7zm-3 15.475c.94.334 1.947.525 3 .525s2.06-.191 3-.525v5.907l-3-1.5-3 1.5zm-41-1.475c-2.415 0-4.435-1.721-4.899-4h2.899c2.415 0 4.435 1.721 4.899 4zm.693 13.107 3.415 3.415 3.293-4.391 2.308.577-2.43 7.292h-6.586l-2.363-6.302zm3.613 30.893h-.612c-5.897 0-10.694-4.797-10.694-10.694 0-3.084 1.331-6.017 3.652-8.048l3.723-3.258h7.249l3.724 3.258c2.321 2.031 3.652 4.964 3.652 8.048 0 5.897-4.797 10.694-10.694 10.694zm36.694-9c0 4.962-4.038 9-9 9s-9-4.038-9-9c0-2.75 1.234-5.278 3.38-7h4.62v2c-1.654 0-3 1.346-3 3s1.346 3 3 3h2c.551 0 1 .449 1 1s-.449 1-1 1h-3v-1h-2v3h3v2h2v-2c1.654 0 3-1.346 3-3s-1.346-3-3-3h-2c-.551 0-1-.449-1-1s.449-1 1-1h3v1h2v-3h-3v-2h4.62c2.146 1.722 3.38 4.25 3.38 7zm-26.328-9c-.576-.817-1.24-1.576-2.006-2.247l-3.507-3.068 3.131-9.394-5.691-1.423-1.599 2.132v-4h3c3.86 0 7-3.14 7-7v-1h-5c-1.958 0-3.728.81-5 2.11v-.11-1c0-1.902-.765-3.627-2-4.89v-6.11h32.525c-.334.94-.525 1.947-.525 3 0 3.113 1.59 5.861 4 7.478v10.14l5-2.5 5 2.5v-10.14c.756-.507 1.429-1.127 2-1.834v27.356zm-9.571-20c.464-2.279 2.485-4 4.899-4h2.899c-.464 2.279-2.485 4-4.899 4z" fill="#fe3b00" data-original="#000000" style="" class=""/><path d="m43 9h-28v6h28zm-2 4h-24v-2h24z" fill="#fe3b00" data-original="#000000" style="" class=""/><path d="m27 17h18v2h-18z" fill="#fe3b00" data-original="#000000" style="" class=""/><path d="m27 21h18v2h-18z" fill="#fe3b00" data-original="#000000" style="" class=""/><path d="m27 25h2v2h-2z" fill="#fe3b00" data-original="#000000" style="" class=""/><path d="m31 25h14v2h-14z" fill="#fe3b00" data-original="#000000" style="" class=""/><path d="m51 41h8v-6h-8zm2-4h4v2h-4z" fill="#fe3b00" data-original="#000000" style="" class=""/><path d="m41 41h8v-6h-8zm2-4h4v2h-4z" fill="#fe3b00" data-original="#000000" style="" class=""/><path d="m31 41h8v-6h-8zm2-4h4v2h-4z" fill="#fe3b00" data-original="#000000" style="" class=""/><path d="m23 41h6v-6h-6zm2-4h2v2h-2z" fill="#fe3b00" data-original="#000000" style="" class=""/><path d="m31 29h2v2h-2z" fill="#fe3b00" data-original="#000000" style="" class=""/><path d="m27 29h2v2h-2z" fill="#fe3b00" data-original="#000000" style="" class=""/><path d="m35 29h10v2h-10z" fill="#fe3b00" data-original="#000000" style="" class=""/></g></g></svg>
