<?xml version="1.0"?>
<svg xmlns="http://www.w3.org/2000/svg" xmlns:xlink="http://www.w3.org/1999/xlink" xmlns:svgjs="http://svgjs.com/svgjs" version="1.1" width="512" height="512" x="0" y="0" viewBox="0 0 468.293 468.293" style="enable-background:new 0 0 512 512" xml:space="preserve" class=""><g>
<polygon xmlns="http://www.w3.org/2000/svg" style="" points="215.017,215.206 215.017,439.599 234.146,468.293 234.146,215.206 " fill="#000000" data-original="#e1e6e9"/>
<polygon xmlns="http://www.w3.org/2000/svg" style="" points="234.146,215.206 234.146,468.293 253.276,439.599 253.276,215.206 " fill="#000000" data-original="#d5d6db" class=""/>
<path xmlns="http://www.w3.org/2000/svg" style="" d="M344.141,109.994c0,60.784-49.258,109.994-109.994,109.994c-50.836,0-93.639-34.481-106.216-81.348  c-2.487-9.134-3.778-18.699-3.778-28.646C124.152,49.258,173.41,0,234.146,0c34.05,0,64.466,15.447,84.6,39.741  C334.624,58.775,344.141,83.309,344.141,109.994z" fill="#fe3b00" data-original="#d15241" class=""/>
<path xmlns="http://www.w3.org/2000/svg" style="" d="M322.524,68.34c0,60.736-49.258,109.994-109.994,109.994c-34.05,0-64.418-15.447-84.6-39.694  c-2.487-9.134-3.778-18.699-3.778-28.646C124.152,49.258,173.41,0,234.146,0c34.05,0,64.466,15.447,84.6,39.741  C321.233,48.876,322.524,58.441,322.524,68.34z" fill="#fe3b00" data-original="#e56353" class=""/>
<path xmlns="http://www.w3.org/2000/svg" style="" d="M263.079,51.46c0.895-8.058-5.227-15.286-13.18-16.86c-19.33-3.825-66.465-7.214-87.194,43.859  c0,0-5.054,13.142,9.477,11.499c7.003-0.792,13.262-4.639,17.67-10.138c7.158-8.931,24.145-23.471,55.723-16.601  c7.415,1.613,15.331-2.481,17.163-9.845C262.889,52.762,263.005,52.124,263.079,51.46z" fill="#000000" data-original="#e1e6e9"/>
<g xmlns="http://www.w3.org/2000/svg">
</g>
<g xmlns="http://www.w3.org/2000/svg">
</g>
<g xmlns="http://www.w3.org/2000/svg">
</g>
<g xmlns="http://www.w3.org/2000/svg">
</g>
<g xmlns="http://www.w3.org/2000/svg">
</g>
<g xmlns="http://www.w3.org/2000/svg">
</g>
<g xmlns="http://www.w3.org/2000/svg">
</g>
<g xmlns="http://www.w3.org/2000/svg">
</g>
<g xmlns="http://www.w3.org/2000/svg">
</g>
<g xmlns="http://www.w3.org/2000/svg">
</g>
<g xmlns="http://www.w3.org/2000/svg">
</g>
<g xmlns="http://www.w3.org/2000/svg">
</g>
<g xmlns="http://www.w3.org/2000/svg">
</g>
<g xmlns="http://www.w3.org/2000/svg">
</g>
<g xmlns="http://www.w3.org/2000/svg">
</g>
</g></svg>
