<?xml version="1.0"?>
<svg xmlns="http://www.w3.org/2000/svg" xmlns:xlink="http://www.w3.org/1999/xlink" xmlns:svgjs="http://svgjs.com/svgjs" version="1.1" width="512" height="512" x="0" y="0" viewBox="0 0 512 512" style="enable-background:new 0 0 512 512" xml:space="preserve" class=""><g><g xmlns="http://www.w3.org/2000/svg"><path d="m23.018 247.425h15.647v-58.139c0-13.153 10.744-23.924 23.925-23.924h23.953c3.231-9.156 10.941-18.397 18.737-24.038 3.911-2.835 8.22-5.159 12.812-6.859-7.2-8.532-11.565-19.56-11.565-31.55v-31.068-13.408c0-8.447 3.458-16.129 9.042-21.713 5.557-5.556 13.239-9.014 21.687-9.014h59.782c4.139 0 7.512 3.373 7.512 7.512v36.624 31.068c0 11.99-4.365 23.018-11.564 31.55 7.823 2.919 14.824 7.597 20.466 13.549 9.213 9.723 14.883 22.79 14.883 37.105v62.306h55.36v-62.306c0-14.173 5.527-27.127 14.571-36.793 5.697-6.123 12.812-10.914 20.778-13.861-7.2-8.532-11.565-19.56-11.565-31.55v-44.477c0-8.447 3.458-16.129 9.014-21.713 5.556-5.556 13.267-9.014 21.714-9.014h36.538c8.477 0 16.158 3.458 21.715 9.014 5.556 5.584 9.014 13.266 9.014 21.713v44.476c0 11.99-4.365 23.018-11.565 31.55 4.621 1.701 8.958 4.025 12.869 6.859 7.796 5.641 15.478 14.91 18.709 24.038h23.953c6.576 0 12.558 2.693 16.895 7.03s7.03 10.318 7.03 16.895v58.139h15.619c12.671 0 23.018 10.346 23.018 23.017v22.989c0 12.671-10.347 23.017-23.018 23.017h-15.619v144.794c0 12.699-10.348 23.045-23.018 23.045h-388.663c-12.672 0-23.019-10.346-23.019-23.045v-144.794h-15.647c-12.671 0-23.018-10.346-23.018-23.017v-22.989c0-12.671 10.347-23.018 23.018-23.018zm98.504-183.09h68.004v-21.628h-52.27c-4.309 0-8.249 1.786-11.085 4.621-2.862 2.863-4.648 6.803-4.648 11.112v5.895zm68.004 14.996h-68.004v23.584c0 9.354 3.827 17.83 10.008 24.009 6.179 6.18 14.654 10.006 24.009 10.006 9.326 0 17.83-3.827 24.01-10.006 6.151-6.179 9.978-14.655 9.978-24.009v-23.584zm200.952 10.715c-11.027 1.644-29.197 1.559-44.222-11.764-5.244 3.061-13.635 6.548-23.782 5.641v18.992c0 9.354 3.826 17.83 10.006 24.009 6.151 6.18 14.655 10.006 24.01 10.006 9.326 0 17.83-3.827 23.98-10.006 6.181-6.179 10.008-14.655 10.008-24.009zm-68.004-21.175c7.115 1.077 14.371-1.304 19.758-5.982 3.117-2.693 7.852-2.352 10.544.766 12.274 14.116 29.339 12.954 37.702 11.282v-16.498c0-4.309-1.758-8.249-4.62-11.112-2.863-2.834-6.805-4.621-11.113-4.621h-36.538c-4.309 0-8.249 1.786-11.112 4.621-2.835 2.863-4.62 6.803-4.62 11.112v10.432zm-189.697 77.414c-6.946.708-13.353 3.26-18.767 7.143-4.393 3.175-8.107 7.257-10.885 11.934h50.117c6.605 0 12.586 2.693 16.923 7.03 4.309 4.337 7.002 10.318 7.002 16.895v58.139h36.17v-62.306c0-10.346-4.082-19.814-10.715-26.788-6.265-6.633-14.825-11.083-24.321-12.047-6.804 3.6-14.57 5.641-22.763 5.641-8.191 0-15.958-2.041-22.761-5.641zm200.951 0c-9.61.992-18.228 5.499-24.521 12.217-6.52 7.002-10.517 16.356-10.517 26.617v62.306h36.143v-18.114c0-4.138 3.373-7.512 7.512-7.512s7.483 3.373 7.483 7.512v18.114h108.539v-58.139c0-2.438-1.02-4.677-2.636-6.293s-3.855-2.636-6.293-2.636h-90.682c-2.438 0-4.677 1.02-6.293 2.636-1.615 1.616-2.636 3.855-2.636 6.293v11.055c0 4.139-3.345 7.512-7.483 7.512-4.139 0-7.512-3.373-7.512-7.512v-11.055c0-6.577 2.692-12.558 7.029-16.895s10.318-7.03 16.895-7.03h50.117c-2.777-4.677-6.491-8.73-10.885-11.905-5.386-3.912-11.82-6.463-18.767-7.172-6.803 3.6-14.541 5.641-22.733 5.641-8.219.001-15.958-2.04-22.76-5.64zm52.922 61.597c-4.14 0-7.484-3.373-7.484-7.512s3.345-7.483 7.484-7.483h34.895c4.139 0 7.484 3.345 7.484 7.483s-3.346 7.512-7.484 7.512zm-296.167 0c-4.139 0-7.512-3.373-7.512-7.512s3.373-7.483 7.512-7.483h34.866c4.14 0 7.513 3.345 7.513 7.483s-3.373 7.512-7.513 7.512zm62.76-27.525h-90.653c-4.903 0-8.929 4.025-8.929 8.929v58.139h108.511v-58.139c0-2.438-.991-4.677-2.636-6.293-1.616-1.615-3.827-2.636-6.293-2.636zm305.124 136.092h-404.706v144.794c0 4.393 3.628 8.022 8.023 8.022h56.891v-18.935c0-4.139 3.373-7.512 7.512-7.512h18.767c1.36-5.188 3.033-10.176 5.018-14.995 2.041-4.904 4.394-9.638 7.059-14.173l-13.267-13.266c-2.92-2.92-2.92-7.682 0-10.602l30.331-30.359c2.947-2.919 7.682-2.919 10.602 0l13.294 13.295c4.535-2.665 9.27-5.046 14.173-7.087 4.792-1.984 9.81-3.657 14.997-4.989v-18.794c0-4.138 3.345-7.483 7.483-7.483h42.916c4.139 0 7.512 3.345 7.512 7.483v18.794c5.159 1.332 10.177 3.004 14.968 4.989 4.904 2.041 9.639 4.422 14.202 7.087l13.266-13.295c2.92-2.919 7.683-2.919 10.602 0l30.331 30.359c2.948 2.92 2.948 7.682 0 10.602l-13.266 13.266c2.664 4.536 5.045 9.269 7.058 14.173 2.013 4.819 3.685 9.808 5.018 14.995h18.795c4.139 0 7.483 3.373 7.483 7.512v18.935h56.92c4.394 0 8.021-3.628 8.021-8.022v-144.794zm-324.797 152.816h63.95c.879-20.807 20.07-45.581 39.006-52.186 3.911-1.332 8.163.737 9.496 4.649 1.36 3.884-.737 8.136-4.621 9.496-12.784 4.422-28.063 23.868-28.857 38.041h86.911c-.736-13.55-17.178-33.789-29.424-38.041-3.911-1.36-5.98-5.612-4.648-9.496 1.36-3.912 5.612-5.981 9.496-4.649 18.396 6.407 38.751 31.975 39.601 52.186h63.95v-11.452h-17.207c-3.486 0-6.604-2.466-7.313-6.038-1.275-6.236-3.174-12.331-5.584-18.199-2.409-5.811-5.357-11.31-8.73-16.498-2.239-2.919-2.013-7.143.681-9.836l12.16-12.161-19.729-19.729-12.188 12.161c-2.466 2.466-6.406 2.948-9.411.935-5.301-3.487-10.941-6.52-16.896-8.986-5.669-2.352-11.565-4.195-17.604-5.442-3.741-.425-6.633-3.6-6.633-7.455v-17.206h-27.921v17.206c0 3.486-2.495 6.604-6.038 7.314-6.236 1.275-12.33 3.146-18.227 5.584-5.784 2.41-11.312 5.329-16.471 8.731-2.947 2.239-7.143 2.012-9.836-.68l-12.189-12.161-19.729 19.729 12.188 12.161c2.523 2.523 2.892 6.491.936 9.439-3.515 5.301-6.52 10.942-8.985 16.895-2.352 5.669-4.195 11.565-5.471 17.575-.397 3.77-3.572 6.661-7.455 6.661h-17.208zm355.412-206.845h-465.964c-4.394 0-8.022 3.628-8.022 8.022v22.989c0 4.394 3.629 8.022 8.022 8.022h465.965c4.394 0 8.023-3.628 8.023-8.022v-22.989c-.001-4.393-3.63-8.022-8.024-8.022z" fill="#fe3b00" data-original="#000000" style=""/></g></g></svg>
