<?xml version="1.0"?>
<svg xmlns="http://www.w3.org/2000/svg" xmlns:xlink="http://www.w3.org/1999/xlink" xmlns:svgjs="http://svgjs.com/svgjs" version="1.1" width="512" height="512" x="0" y="0" viewBox="0 0 512 512" style="enable-background:new 0 0 512 512" xml:space="preserve" class=""><g><g xmlns="http://www.w3.org/2000/svg" id="Out_line" data-name="Out line"><path d="M480,176V80a8.00008,8.00008,0,0,0-8-8H440a8.00008,8.00008,0,0,0-8,8v96h-8V104a8.00008,8.00008,0,0,0-8-8H384a8.00008,8.00008,0,0,0-8,8v72h-8V128a8.00008,8.00008,0,0,0-8-8H328a8.00008,8.00008,0,0,0-8,8v48H304v16H496V176ZM448,88h16v88H448Zm-56,24h16v64H392Zm-56,24h16v40H336Z" fill="#fe3b00" data-original="#000000" style="" class=""/><path d="M432,352H80V216H64V392a24.02718,24.02718,0,0,0,24,24H224v24a8.00917,8.00917,0,0,1-8,8,24,24,0,0,0,0,48h80a24,24,0,0,0,0-48,8.00917,8.00917,0,0,1-8-8V416H424a24.02718,24.02718,0,0,0,24-24V208H432ZM296,464a8,8,0,0,1,0,16H216a8,8,0,0,1,0-16,24.0275,24.0275,0,0,0,24-24V416h32v24A24.0275,24.0275,0,0,0,296,464Zm128-64H88a8.00917,8.00917,0,0,1-8-8V368H432v24A8.00917,8.00917,0,0,1,424,400Z" fill="#fe3b00" data-original="#000000" style="" class=""/><rect x="168" y="144" width="136" height="16" fill="#fe3b00" data-original="#000000" style="" class=""/><circle cx="256" cy="384" r="8" fill="#fe3b00" data-original="#000000" style="" class=""/><path d="M144,336V320h8a8.00008,8.00008,0,0,0,8-8V264a8.00008,8.00008,0,0,0-8-8h-8V240H128v16h-8a8.00008,8.00008,0,0,0-8,8v48a8.00008,8.00008,0,0,0,8,8h8v16Zm-16-64h16v32H128Z" fill="#fe3b00" data-original="#000000" style="" class=""/><path d="M224,288V272h8a8.00008,8.00008,0,0,0,8-8V216a8.00008,8.00008,0,0,0-8-8h-8V192H208v16h-8a8.00008,8.00008,0,0,0-8,8v48a8.00008,8.00008,0,0,0,8,8h8v16Zm-16-64h16v32H208Z" fill="#fe3b00" data-original="#000000" style="" class=""/><path d="M288,224v16h-8a8.00008,8.00008,0,0,0-8,8v48a8.00008,8.00008,0,0,0,8,8h8v16h16V304h8a8.00008,8.00008,0,0,0,8-8V248a8.00008,8.00008,0,0,0-8-8h-8V224Zm16,64H288V256h16Z" fill="#fe3b00" data-original="#000000" style="" class=""/><path d="M368,200v16h-8a8.00008,8.00008,0,0,0-8,8v48a8.00008,8.00008,0,0,0,8,8h8v16h16V280h8a8.00008,8.00008,0,0,0,8-8V224a8.00008,8.00008,0,0,0-8-8h-8V200Zm16,64H368V232h16Z" fill="#fe3b00" data-original="#000000" style="" class=""/><path d="M160,128a71.825,71.825,0,0,0-9.65039-36.01465,8.00186,8.00186,0,0,0-10.919-2.91406L96,114.14453V64a8.00008,8.00008,0,0,0-8-8,72,72,0,1,0,72,72Zm-19.98828-20.78906A56.02607,56.02607,0,0,1,96,183.41943V132.61914ZM80,72.56934V120H32.57434A56.12772,56.12772,0,0,1,80,72.56934ZM32.58057,136H80v47.41943A56.11355,56.11355,0,0,1,32.58057,136Z" fill="#fe3b00" data-original="#000000" style="" class=""/><path d="M108,94.92773a8.00011,8.00011,0,0,0,8,.001l55.42969-32A8.00092,8.00092,0,0,0,175.43018,56v-.00977a7.99881,7.99881,0,0,0-1.0752-4.00585A72.25258,72.25258,0,0,0,112,16a8.00008,8.00008,0,0,0-8,8V88A7.9987,7.9987,0,0,0,108,94.92773ZM120,32.5791a56.30334,56.30334,0,0,1,36.00049,20.78223L120,74.14453Z" fill="#fe3b00" data-original="#000000" style="" class=""/></g></g></svg>
